<svg width="24" height="24" viewBox="0 0 24 24" fill="none" xmlns="http://www.w3.org/2000/svg">
<rect width="24" height="24" rx="12" fill="#E84E1B"/>
<path d="M12.5104 14.882V14.3957C12.5104 14.0475 12.5929 13.7293 12.7578 13.4411C12.9263 13.1499 13.1703 12.9173 13.49 12.7432C13.8131 12.566 14.2032 12.4775 14.6603 12.4775C15.1278 12.4775 15.5196 12.5645 15.8358 12.7387C16.152 12.9128 16.3909 13.1454 16.5525 13.4366C16.7175 13.7278 16.8 14.0475 16.8 14.3957V14.882C16.8 15.2302 16.7175 15.5499 16.5525 15.8411C16.3875 16.1293 16.1452 16.3619 15.8255 16.539C15.5093 16.7131 15.1209 16.8002 14.6603 16.8002C14.1963 16.8002 13.8045 16.7131 13.4848 16.539C13.1652 16.3619 12.9228 16.1293 12.7578 15.8411C12.5929 15.5499 12.5104 15.2302 12.5104 14.882ZM13.7117 14.3957V14.882C13.7117 15.1402 13.7821 15.3743 13.923 15.5844C14.064 15.7946 14.3097 15.8996 14.6603 15.8996C15.0075 15.8996 15.2498 15.7946 15.3873 15.5844C15.5248 15.3743 15.5935 15.1402 15.5935 14.882V14.3957C15.5935 14.1375 15.5265 13.9034 15.3924 13.6933C15.2618 13.4831 15.0178 13.3781 14.6603 13.3781C14.3166 13.3781 14.0726 13.4831 13.9282 13.6933C13.7838 13.9034 13.7117 14.1375 13.7117 14.3957ZM7.19995 9.6047V9.11839C7.19995 8.77018 7.28244 8.45048 7.44743 8.15929C7.61585 7.86811 7.85989 7.63547 8.17954 7.46136C8.50264 7.28725 8.89275 7.2002 9.3499 7.2002C9.81735 7.2002 10.2092 7.28725 10.5254 7.46136C10.8416 7.63547 11.0805 7.86811 11.2421 8.15929C11.4036 8.45048 11.4844 8.77018 11.4844 9.11839V9.6047C11.4844 9.95292 11.4019 10.2726 11.2369 10.5638C11.0754 10.852 10.8348 11.0846 10.5151 11.2617C10.1989 11.4358 9.81048 11.5229 9.3499 11.5229C8.88244 11.5229 8.48889 11.4358 8.16923 11.2617C7.85301 11.0846 7.61241 10.852 7.44743 10.5638C7.28244 10.2726 7.19995 9.95292 7.19995 9.6047ZM8.4064 9.11839V9.6047C8.4064 9.86286 8.47514 10.097 8.61263 10.3071C8.75355 10.5173 8.99931 10.6223 9.3499 10.6223C9.69361 10.6223 9.93422 10.5173 10.0717 10.3071C10.2126 10.097 10.2831 9.86286 10.2831 9.6047V9.11839C10.2831 8.86023 10.2161 8.62609 10.082 8.41596C9.94796 8.20582 9.70393 8.10076 9.3499 8.10076C9.00618 8.10076 8.76214 8.20582 8.61778 8.41596C8.47686 8.62609 8.4064 8.86023 8.4064 9.11839ZM7.68975 16.6111L14.949 7.38931H16.1813L8.92197 16.6111H7.68975Z" fill="white"/>
</svg>
