<?xml version="1.0" encoding="utf-8"?><svg viewBox="0 0 20 18" xmlns="http://www.w3.org/2000/svg" xmlns:xlink="http://www.w3.org/1999/xlink"><style>:root>svg{display:none}:root>svg:target{display:block}</style><svg viewBox="0 0 20 17" id="tg" xmlns="http://www.w3.org/2000/svg"><path d="M19.273.602l-2.934 15.69s-.41 1.088-1.538.566l-6.768-5.505L8 11.336c.915-.87 8.004-7.633 8.314-7.94.48-.475.182-.757-.375-.399L5.468 10.053l-4.04-1.442S.792 8.37.73 7.849c-.062-.522.718-.805.718-.805L17.919.189s1.354-.631 1.354.413z"/></svg><svg viewBox="0 0 18 18" id="whatsup" xmlns="http://www.w3.org/2000/svg"><path d="M15.366 2.625A8.939 8.939 0 009.03 0C4.077 0 .063 4 .063 8.938c0 1.562.439 3.124 1.191 4.437L0 18l4.767-1.25a9.17 9.17 0 004.264 1.063c4.955 0 8.969-4 8.969-8.938-.063-2.313-.94-4.563-2.634-6.25zm-2.007 9.5c-.188.5-1.066 1-1.505 1.063a3.517 3.517 0 01-1.38-.063c-.314-.125-.753-.25-1.254-.5-2.258-.938-3.7-3.188-3.826-3.375-.126-.125-.941-1.188-.941-2.313 0-1.125.564-1.625.753-1.875.188-.25.439-.25.627-.25h.439c.125 0 .313-.062.502.375.188.438.627 1.563.69 1.625a.397.397 0 010 .375c-.063.125-.126.25-.251.375-.126.125-.251.313-.314.375-.125.125-.25.25-.125.438.125.25.564.938 1.254 1.563.878.75 1.568 1 1.819 1.124.25.126.376.063.501-.062.126-.125.565-.625.69-.875.126-.25.314-.188.502-.125s1.317.625 1.505.75c.251.125.377.188.44.25.062.188.062.625-.126 1.125z"/></svg></svg>