<?xml version="1.0" encoding="utf-8"?><svg viewBox="0 0 20 19" xmlns="http://www.w3.org/2000/svg" xmlns:xlink="http://www.w3.org/1999/xlink"><style>:root>svg{display:none}:root>svg:target{display:block}</style><svg viewBox="0 0 19 19" id="cart-icon" xmlns="http://www.w3.org/2000/svg"><path d="M17.963 3.228a2.312 2.312 0 00-.793-.63 2.246 2.246 0 00-.977-.223H3.762l-.033-.278A2.398 2.398 0 002.972.6 2.27 2.27 0 001.44 0h-.171c-.204 0-.4.083-.544.232A.804.804 0 00.5.792c0 .21.081.411.225.56.144.148.34.231.544.231h.17c.189 0 .37.072.511.2a.8.8 0 01.253.5l1.058 9.262c.11.963.56 1.851 1.263 2.496.704.645 1.613 1 2.555 1h8.03c.203 0 .399-.083.543-.231a.804.804 0 00.225-.56.804.804 0 00-.225-.56.757.757 0 00-.543-.232h-8.03a2.26 2.26 0 01-1.328-.437 2.37 2.37 0 01-.84-1.146h9.165c.901 0 1.774-.326 2.465-.921a3.984 3.984 0 001.319-2.335l.603-3.447c.06-.342.047-.693-.04-1.03a2.397 2.397 0 00-.46-.914zM5.882 19c.85 0 1.538-.709 1.538-1.583 0-.875-.689-1.584-1.538-1.584-.85 0-1.538.71-1.538 1.584 0 .874.689 1.583 1.538 1.583zM13.57 19c.85 0 1.538-.709 1.538-1.583 0-.875-.688-1.584-1.537-1.584-.85 0-1.538.71-1.538 1.584 0 .874.689 1.583 1.538 1.583z"/></svg><svg viewBox="0 0 18 16" id="fav-icon" xmlns="http://www.w3.org/2000/svg"><path d="M9.617 1.543L9 2.203l-.617-.66c-1.917-2.057-5.027-2.057-6.945 0-1.866 2.001-1.923 5.227-.13 7.303l5.154 5.965c1.37 1.585 3.707 1.585 5.076 0l5.154-5.965c1.793-2.076 1.736-5.302-.13-7.303-1.918-2.057-5.028-2.057-6.945 0z"/></svg><svg viewBox="0 0 18 18" id="search-icon" xmlns="http://www.w3.org/2000/svg"><path d="M17 17l-1.6-1.6M1 8.6a7.6 7.6 0 1115.2 0A7.6 7.6 0 011 8.6z"/></svg><svg viewBox="0 0 20 17" id="tg" xmlns="http://www.w3.org/2000/svg"><path d="M19.273.602l-2.934 15.69s-.41 1.088-1.538.566l-6.768-5.505L8 11.336c.915-.87 8.004-7.633 8.314-7.94.48-.475.182-.757-.375-.399L5.468 10.053l-4.04-1.442S.792 8.37.73 7.849c-.062-.522.718-.805.718-.805L17.919.189s1.354-.631 1.354.413z"/></svg><svg viewBox="0 0 14 18" id="user-icon" xmlns="http://www.w3.org/2000/svg"><path d="M7 9c2.577 0 4.667-2.015 4.667-4.5S9.577 0 7 0 2.333 2.015 2.333 4.5 4.423 9 7 9zM7 10.5c-3.864.004-6.996 3.024-7 6.75 0 .414.348.75.778.75h12.444c.43 0 .778-.336.778-.75-.004-3.726-3.136-6.746-7-6.75z"/></svg><svg viewBox="0 0 18 18" id="whatsup" xmlns="http://www.w3.org/2000/svg"><path d="M15.366 2.625A8.939 8.939 0 009.03 0C4.077 0 .063 4 .063 8.938c0 1.562.439 3.124 1.191 4.437L0 18l4.767-1.25a9.17 9.17 0 004.264 1.063c4.955 0 8.969-4 8.969-8.938-.063-2.313-.94-4.563-2.634-6.25zm-2.007 9.5c-.188.5-1.066 1-1.505 1.063a3.517 3.517 0 01-1.38-.063c-.314-.125-.753-.25-1.254-.5-2.258-.938-3.7-3.188-3.826-3.375-.126-.125-.941-1.188-.941-2.313 0-1.125.564-1.625.753-1.875.188-.25.439-.25.627-.25h.439c.125 0 .313-.062.502.375.188.438.627 1.563.69 1.625a.397.397 0 010 .375c-.063.125-.126.25-.251.375-.126.125-.251.313-.314.375-.125.125-.25.25-.125.438.125.25.564.938 1.254 1.563.878.75 1.568 1 1.819 1.124.25.126.376.063.501-.062.126-.125.565-.625.69-.875.126-.25.314-.188.502-.125s1.317.625 1.505.75c.251.125.377.188.44.25.062.188.062.625-.126 1.125z"/></svg></svg>