<svg width="200" height="43" viewBox="0 0 200 43" fill="none" xmlns="http://www.w3.org/2000/svg">
<path d="M50.7213 11.4329H57.4538V42.0388H50.7213V11.4329Z" fill="#293D73"/>
<path d="M64.3888 0H71.1212V42.0388H64.3888V0Z" fill="#293D73"/>
<path d="M100.734 14.0129C99.7722 12.9 98.5067 12.04 96.9375 11.4329C95.3683 10.8259 93.3435 10.4718 90.9137 10.4718C87.1678 10.4718 84.1812 11.18 82.0046 12.5459C79.8279 13.9118 78.5118 16.0871 77.955 19.0718L84.08 19.7294C84.3837 18.4141 85.0418 17.3518 86.0542 16.6435C87.0666 15.9353 88.5852 15.5812 90.6606 15.5812C92.4829 15.5812 93.9509 16.0365 95.0645 16.8965C96.1782 17.7565 96.735 19.3753 96.735 21.7024V23.0176L92.1792 23.2706C90.3063 23.3718 88.4333 23.5235 86.5098 23.8271C84.6368 24.1306 82.9157 24.6365 81.3971 25.3953C79.8785 26.1541 78.6636 27.1659 77.7019 28.4812C76.7401 29.7965 76.2845 31.5165 76.2845 33.6412C76.2845 35.2094 76.5376 36.5753 77.0944 37.7388C77.6006 38.9024 78.3599 39.8635 79.2711 40.5718C80.1822 41.3306 81.2959 41.8871 82.5614 42.2412C83.8269 42.5953 85.1936 42.7976 86.611 42.7976C88.9901 42.7976 90.9643 42.3424 92.6348 41.4318C94.3052 40.5212 95.672 39.4082 96.8363 37.9918V41.9882H103.265V22.9165C103.265 21.0953 103.063 19.4765 102.708 17.9588C102.303 16.4412 101.645 15.1259 100.734 14.0129ZM96.6844 29.3412C96.6844 31.8706 95.9757 33.8941 94.5583 35.4118C93.141 36.8788 90.9643 37.6376 88.0284 37.6376C86.3579 37.6376 85.143 37.2835 84.2825 36.5247C83.4219 35.7659 83.017 34.7541 83.017 33.3882C83.017 32.6294 83.1182 31.9212 83.3207 31.3141C83.5232 30.6565 83.9787 30.1 84.6368 29.5941C85.2949 29.0882 86.2567 28.6835 87.4715 28.38C88.6864 28.0765 90.3063 27.8741 92.3311 27.7223L96.6338 27.5706V29.3412H96.6844Z" fill="#293D73"/>
<path d="M125.082 10.9776C123.412 10.9776 121.792 11.4329 120.324 12.2929C118.805 13.1529 117.54 14.4176 116.477 15.9859V11.4329H109.997V42.0388H116.629V24.08C116.629 23.22 116.781 22.36 117.135 21.5C117.489 20.64 117.945 19.8812 118.603 19.2235C119.261 18.5659 120.071 18.0094 120.982 17.6047C121.944 17.2 123.007 16.9976 124.272 16.9976C124.829 16.9976 125.335 16.9976 125.842 17.0482C126.348 17.0988 126.803 17.1494 127.259 17.3012L128.018 11.18C127.563 11.0788 127.158 11.0282 126.702 11.0282C126.297 10.9776 125.74 10.9776 125.082 10.9776Z" fill="#293D73"/>
<path d="M153.075 14.8729C151.911 13.4565 150.645 12.4447 149.38 11.8376C148.114 11.2306 146.798 10.8259 145.381 10.6741C144.925 10.6235 144.52 10.6235 144.166 10.5729C143.761 10.5729 143.356 10.5729 143.002 10.6235C140.977 10.7247 139.155 11.18 137.585 12.04C136.016 12.9 134.751 14.0635 133.688 15.48C132.625 16.8965 131.815 18.6165 131.258 20.5388C130.701 22.4612 130.448 24.5859 130.448 26.8118C130.448 29.1894 130.701 31.4153 131.258 33.3882C131.764 35.3612 132.574 37.0812 133.637 38.4976C134.7 39.9141 136.016 41.0271 137.636 41.8365C139.256 42.6459 141.129 43 143.356 43C145.482 43 147.355 42.5447 148.924 41.6847C150.494 40.8247 151.962 39.5094 153.176 37.7894V42.0388H159.706V0H153.075V14.8729ZM153.126 27.6718C153.126 31.0612 152.366 33.54 150.848 35.1082C149.329 36.6765 147.355 37.4859 144.925 37.4859C143.862 37.4859 142.901 37.2835 141.989 36.8788C141.078 36.4741 140.268 35.8671 139.61 35.0071C138.902 34.1471 138.395 33.0341 138.041 31.6682C137.687 30.3024 137.484 28.6329 137.484 26.66C137.484 23.0682 138.142 20.3365 139.509 18.6165C140.876 16.8459 142.799 15.9859 145.28 15.9859C146.343 15.9859 147.355 16.1376 148.317 16.4918C149.279 16.8459 150.139 17.3518 150.848 18.1612C151.557 18.92 152.164 19.9824 152.569 21.2976C152.974 22.6129 153.176 24.2318 153.176 26.1541V27.6718H153.126Z" fill="#293D73"/>
<path d="M191.85 15.0247C190.585 13.6082 189.015 12.4953 187.092 11.6859C185.219 10.8765 183.042 10.4718 180.613 10.4718C178.233 10.4718 176.057 10.8765 174.184 11.6353C172.311 12.4447 170.691 13.5071 169.425 14.9235C168.109 16.34 167.148 18.06 166.439 20.0329C165.73 22.0565 165.426 24.2318 165.426 26.7106C165.426 31.8706 166.743 35.9176 169.375 38.7C172.007 41.5329 175.702 42.9494 180.511 42.9494C182.739 42.9494 184.814 42.5953 186.636 41.8871C188.459 41.1788 190.078 40.1165 191.445 38.7506C192.812 37.3341 193.875 35.6647 194.584 33.6412C195.343 31.6176 195.697 29.2906 195.697 26.6094C195.697 24.2318 195.394 22.1071 194.736 20.0835C194.077 18.1612 193.116 16.4412 191.85 15.0247ZM186.788 34.6529C185.472 36.5753 183.397 37.5871 180.562 37.5871C177.677 37.5871 175.55 36.6259 174.285 34.6529C173.019 32.68 172.361 30.0494 172.361 26.7106C172.361 23.4223 173.019 20.7918 174.336 18.8694C175.652 16.9471 177.727 15.9353 180.562 15.9353C183.397 15.9353 185.472 16.8965 186.788 18.8188C188.104 20.7412 188.762 23.3718 188.762 26.7106C188.762 30.0494 188.104 32.7306 186.788 34.6529Z" fill="#293D73"/>
<path d="M42.3184 14.9235C42.0653 14.5694 41.7616 14.2153 41.4072 13.8106C39.5849 11.8882 37.2564 11.1294 35.6366 10.7753C34.776 10.6235 33.8648 10.5224 32.8018 10.5224C31.6882 10.5224 30.5745 10.6741 29.4609 10.9271C28.1448 11.2812 26.6768 11.8882 25.2088 12.6471L24.9557 12.7482L22.9815 13.9624C22.9309 13.9118 22.8803 13.8106 22.8297 13.76C21.0073 11.8376 18.6788 11.0788 17.059 10.7247C16.1984 10.5729 15.2873 10.4718 14.2242 10.4718C13.1106 10.4718 11.997 10.6235 10.8833 10.8765C9.5672 11.2306 8.09922 11.8376 6.63123 12.5965L6.37813 12.6976V18.6165H0V41.9882H6.42875V18.7176L7.08681 18.2624C8.90914 16.9976 11.1364 16.2894 13.2118 16.2894C17.3121 16.2894 18.9319 18.1106 18.9319 22.5118V42.0894H25.3607V18.4141L25.5631 18.2624C27.3855 16.9976 29.6128 16.2894 31.6882 16.2894C35.7884 16.2894 37.4083 18.1106 37.4083 22.5118V42.0894H43.837V20.7412C43.837 18.7176 43.3308 16.8965 42.4196 15.3788L42.3184 14.9235Z" fill="#293D73"/>
<path d="M199.443 2.68118C199.089 2.1247 198.633 1.66941 198.076 1.36588C197.469 1.06235 196.862 0.859998 196.203 0.859998C195.545 0.859998 194.887 1.01176 194.331 1.36588C193.723 1.66941 193.268 2.1247 192.964 2.68118C192.609 3.23765 192.458 3.8447 192.458 4.50235C192.458 5.16 192.609 5.76706 192.964 6.37412C193.318 6.93059 193.774 7.38588 194.331 7.74C194.887 8.09412 195.545 8.24588 196.203 8.24588C196.912 8.24588 197.52 8.09412 198.127 7.74C198.684 7.38588 199.139 6.98118 199.494 6.37412C199.848 5.81765 200 5.21059 200 4.55294C200 3.89529 199.798 3.23765 199.443 2.68118ZM198.886 6.07059C198.633 6.52588 198.228 6.93059 197.773 7.18353C197.267 7.48706 196.76 7.58823 196.203 7.58823C195.647 7.58823 195.09 7.43647 194.634 7.18353C194.128 6.93059 193.774 6.52588 193.521 6.07059C193.268 5.61529 193.116 5.10941 193.116 4.55294C193.116 3.99647 193.268 3.49059 193.521 3.03529C193.774 2.58 194.179 2.1753 194.634 1.92235C195.14 1.66941 195.647 1.51765 196.203 1.51765C196.76 1.51765 197.317 1.66941 197.773 1.92235C198.279 2.22588 198.633 2.58 198.886 3.03529C199.139 3.49059 199.291 3.99647 199.291 4.55294C199.291 5.05882 199.19 5.56471 198.886 6.07059Z" fill="#293D73"/>
<path d="M197.823 5.61529C197.823 5.36235 197.773 5.10941 197.671 4.95765C197.57 4.75529 197.418 4.65412 197.165 4.55294C197.57 4.35059 197.823 4.04706 197.823 3.69294C197.823 3.28824 197.671 2.98471 197.368 2.73177C197.064 2.52941 196.659 2.37765 196.102 2.37765H194.634V6.57647H195.444V4.90706H196.305C196.558 4.90706 196.76 4.95765 196.912 5.05882C197.013 5.16 197.064 5.36235 197.064 5.61529C197.064 6.12118 197.064 6.4753 197.115 6.57647H197.925V6.4753C197.874 6.4247 197.874 6.32353 197.874 6.17176C197.823 6.07059 197.823 5.86823 197.823 5.61529ZM196.811 4.09765C196.659 4.19882 196.457 4.24941 196.203 4.24941H195.444V3.03529H196.203C196.558 3.03529 196.76 3.08588 196.862 3.18706C196.963 3.28824 197.064 3.44 197.064 3.69294C197.064 3.84471 196.963 3.99647 196.811 4.09765Z" fill="#293D73"/>
<path d="M50.4176 0.809411V8.1447H57.7575V0.809411H50.4176Z" fill="#4DB7A4"/>
</svg>
