<svg width="200" height="55" viewBox="0 0 200 55" fill="none" xmlns="http://www.w3.org/2000/svg">
<path d="M73.6977 35.7178L89.2453 8.70773H78.8279L68.8709 28.1397L62.85 8.70773H52.1258L62.2362 35.7178H73.6977Z" fill="#E30613"/>
<path d="M136.625 29.6007H120.474V25.0458H134.647L135.044 18.7637H121.398L121.661 14.468H137.282L137.613 8.70773H111.958L110.33 35.7178L136.442 35.8996L136.625 29.6007Z" fill="#E30613"/>
<path d="M154.878 8.70773H145.321V13.8047H154.878V8.70773ZM153.431 35.7178L154.588 14.9999H144.945L143.787 35.7178H153.431Z" fill="#E30613"/>
<path d="M103.275 8.70773H93.7184V13.8047H103.275V8.70773ZM101.824 35.7178L102.985 14.9999H93.3415L92.1807 35.7178H101.824Z" fill="#E30613"/>
<path d="M172.677 35.4216V13.862H176.31C178.378 13.7542 179.449 14.6497 179.996 15.1177C180.543 15.5823 180.813 16.2522 180.813 17.1208C180.813 17.7133 180.64 18.2352 180.296 18.6863C179.953 19.1408 179.502 19.4236 178.955 19.5347C177.868 19.7804 177.141 19.905 176.764 19.905L173.618 19.9925L179.552 35.4182H190.163C190.163 35.4182 185.15 24.6721 184.429 22.7498C185.66 22.467 186.314 22.2616 187.021 21.8307C188.125 21.154 189.012 20.107 189.583 18.9893C190.003 18.1678 190.397 17.343 190.397 15.8483C190.397 14.1313 189.986 12.6668 189.159 11.4751C188.332 10.2732 187.241 9.45511 185.89 9.01409C184.542 8.5697 181.32 8.40474 178.765 8.40474H163.327L161.583 35.4148H172.677" fill="#E30613"/>
<path d="M199.666 7.80549C199.666 9.25985 198.492 10.4483 197.045 10.4483C195.604 10.4483 194.429 9.25985 194.429 7.80549C194.429 6.35112 195.604 5.16272 197.045 5.16272C198.492 5.16272 199.666 6.35112 199.666 7.80549ZM200 7.80549C200 6.16596 198.676 4.82943 197.048 4.82943C195.423 4.82943 194.103 6.16933 194.103 7.80549C194.103 9.44165 195.427 10.7815 197.048 10.7815C198.676 10.7815 200 9.44165 200 7.80549Z" fill="#E30613"/>
<path d="M197.868 6.50599C197.995 6.61708 198.059 6.75848 198.059 6.93354C198.059 7.05474 198.029 7.16583 197.959 7.2702C197.895 7.36783 197.798 7.44526 197.672 7.49239C197.548 7.53616 197.375 7.55973 197.151 7.55973H196.101V6.33092H197.268C197.538 6.33429 197.738 6.39489 197.868 6.50599ZM196.101 9.63691V7.98728H196.668C196.794 7.98728 196.884 7.99401 196.941 8.00411C197.015 8.02768 197.091 8.05798 197.165 8.10511C197.235 8.15225 197.318 8.23641 197.408 8.35424C197.505 8.47207 197.618 8.64377 197.762 8.86596L198.252 9.64027H198.863L198.222 8.62693C198.092 8.43167 197.959 8.26334 197.818 8.13541C197.748 8.07145 197.652 8.01085 197.525 7.94688C197.879 7.89638 198.142 7.78192 198.309 7.60349C198.479 7.4217 198.562 7.20287 198.562 6.93691C198.562 6.73155 198.516 6.54975 198.412 6.37806C198.309 6.21309 198.172 6.0919 198.002 6.02793C197.835 5.9606 197.582 5.92693 197.255 5.92693H195.62V9.63691H196.101Z" fill="#E30613"/>
<path d="M188.922 50.2615V48.4402C189.179 47.9958 189.389 47.6793 189.546 47.484L190.794 45.5819V45.5584H189.873L188.475 47.9082L187.064 45.5584H186.137V45.5819L187.384 47.484C187.401 47.5143 187.515 47.6692 187.725 47.9587C187.848 48.1271 187.941 48.2887 188.008 48.4368V50.2581H188.922M184.306 50.2615C184.522 50.2615 184.696 50.2345 184.833 50.1739C184.969 50.1066 185.036 50.0258 185.036 49.9315V47.9082H183.018V48.2718H184.112V49.8945H181.787V45.9354H184.112V46.9925H185.033V45.895C185.033 45.8008 184.966 45.72 184.829 45.656C184.693 45.592 184.519 45.5651 184.302 45.5651H181.604C181.39 45.5651 181.213 45.5954 181.077 45.656C180.94 45.72 180.873 45.7974 180.873 45.895V49.9349C180.873 50.0325 180.94 50.1133 181.077 50.1773C181.213 50.2379 181.387 50.2648 181.604 50.2648H184.306V50.2615ZM178.321 49.8912H175.806V45.932H178.321V49.8912ZM178.498 50.2615C178.715 50.2615 178.892 50.2345 179.032 50.1739C179.169 50.1066 179.239 50.0258 179.239 49.9315V45.8916C179.239 45.7974 179.169 45.7166 179.032 45.6526C178.895 45.5887 178.715 45.5617 178.498 45.5617H175.623C175.409 45.5617 175.236 45.592 175.099 45.6526C174.959 45.7166 174.892 45.794 174.892 45.8916V49.9315C174.892 50.0292 174.959 50.11 175.099 50.1739C175.236 50.2345 175.409 50.2615 175.623 50.2615H178.498ZM173.645 50.2615V49.8912H171.273V45.5617H170.362V50.2615H173.645ZM167.804 49.8912H165.286V45.932H167.804V49.8912ZM167.981 50.2615C168.194 50.2615 168.374 50.2345 168.511 50.1739C168.648 50.1066 168.715 50.0258 168.715 49.9315V45.8916C168.715 45.7974 168.648 45.7166 168.511 45.6526C168.371 45.5887 168.194 45.5617 167.981 45.5617H165.105C164.892 45.5617 164.715 45.592 164.578 45.6526C164.445 45.7166 164.378 45.794 164.378 45.8916V49.9315C164.378 50.0292 164.445 50.11 164.578 50.1739C164.715 50.2345 164.892 50.2615 165.105 50.2615H167.981ZM159.358 50.2615V46.804L162.103 50.2615H162.734V45.5617H161.873V48.9586L159.181 45.5617H158.497V50.2615H159.358ZM153.467 50.2615V48.0025H155.942V50.2615H156.856V45.5617H155.942V47.6254H153.467V45.5617H152.553V50.2615H153.467ZM150.215 50.2615C150.432 50.2615 150.605 50.2345 150.745 50.1739C150.885 50.1066 150.955 50.0258 150.955 49.9315V48.7398H150.038V49.8912H147.753V45.932H150.038V46.9892H150.955V45.8916C150.955 45.7974 150.889 45.7166 150.745 45.6526C150.605 45.5887 150.432 45.5617 150.215 45.5617H147.566C147.35 45.5617 147.176 45.592 147.039 45.6526C146.906 45.7166 146.839 45.794 146.839 45.8916V49.9315C146.839 50.0292 146.909 50.11 147.039 50.1739C147.176 50.2345 147.353 50.2615 147.566 50.2615H150.215ZM145.412 50.2615V49.8912H142.95V48.0631H145.155V47.686H142.95V45.932H145.371V45.5617H142.032V50.2615H145.412ZM139.377 50.2615V45.9287H140.965V45.5584H136.862V45.9287H138.467V50.2615H139.377ZM127.135 50.2615V46.804L129.881 50.2615H130.511V45.5617H129.654V48.9586L126.959 45.5617H126.275V50.2615H127.135ZM123.656 48.8475H121.852L122.756 46.299L123.656 48.8475ZM121.371 50.2615L121.732 49.2145H123.773L124.14 50.2615H125.044L123.223 45.5483H122.322L120.487 50.2514V50.2615H121.371ZM119.183 45.5584H118.269V50.2615H119.183V45.5584ZM116.971 50.2615V49.8912H114.596V45.5617H113.686V50.2615H116.971ZM111.064 48.8475H109.256L110.163 46.299L111.064 48.8475ZM108.779 50.2615L109.139 49.2145H111.181L111.544 50.2615H112.452L110.63 45.5483H109.733L107.902 50.2514V50.2615H108.779ZM105.647 50.2615V45.9287H107.238V45.5584H103.135V45.9287H104.736V50.2615H105.647ZM101.981 45.5584H101.07V50.2615H101.981V45.5584ZM94.499 50.2615V49.8912H92.124V45.5617H91.2133V50.2615H94.499ZM88.5915 48.8475H86.7835L87.6908 46.299L88.5915 48.8475ZM86.3065 50.2615L86.6668 49.2145H88.7116L89.0718 50.2615H89.9791L88.1612 45.5483H87.2605L85.4259 50.2514V50.2615H86.3065ZM80.816 50.2615V46.804L83.5613 50.2615H84.1917V45.5617H83.3311V48.9586L80.6359 45.5617H79.9521V50.2615H80.816ZM78.2409 45.5584H77.3269V50.2615H78.2409V45.5584ZM74.9152 50.2615C75.132 50.2615 75.3055 50.2345 75.4422 50.1739C75.579 50.1066 75.6457 50.0258 75.6457 49.9315V47.9082H73.6276V48.2718H74.7284V49.8945H72.4034V45.9354H74.7284V46.9925H75.649V45.895C75.649 45.8008 75.5823 45.72 75.4455 45.656C75.3088 45.592 75.1353 45.5651 74.9185 45.5651H72.2199C72.0065 45.5651 71.8297 45.5954 71.6929 45.656C71.5595 45.72 71.4894 45.7974 71.4894 45.895V49.9349C71.4894 50.0325 71.5595 50.1133 71.6929 50.1773C71.8297 50.2379 72.0065 50.2648 72.2199 50.2648H74.9152V50.2615ZM69.7716 45.5584H68.8576V50.2615H69.7716V45.5584ZM63.9775 50.2615V45.9287H66.3258V47.6591H64.6946L64.5679 47.7399L66.4792 50.2581H67.4399C66.8528 49.5074 66.2657 48.7532 65.672 48.0059C65.7287 48.0059 65.8221 48.0059 65.9489 48.0092C66.0756 48.0092 66.1723 48.0126 66.2391 48.0126C66.9029 48.0126 67.2364 47.9015 67.2364 47.6726V45.8883C67.2364 45.794 67.1664 45.7132 67.033 45.6493C66.8995 45.5853 66.7261 45.5584 66.5093 45.5584H63.0668V50.2581H63.9775V50.2615ZM60.5117 49.8912H57.9932V45.932H60.5117V49.8912ZM60.6885 50.2615C60.902 50.2615 61.0788 50.2345 61.2155 50.1739C61.3556 50.1066 61.419 50.0258 61.419 49.9315V45.8916C61.419 45.7974 61.3523 45.7166 61.2155 45.6526C61.0788 45.5887 60.902 45.5617 60.6885 45.5617H57.8131C57.5963 45.5617 57.4195 45.592 57.2861 45.6526C57.1493 45.7166 57.0826 45.794 57.0826 45.8916V49.9315C57.0826 50.0292 57.1493 50.11 57.2861 50.1739C57.4195 50.2345 57.5963 50.2615 57.8131 50.2615H60.6885Z" fill="#368D48"/>
<path d="M23.3588 9.90623C24.7532 10.492 26.1208 11.0374 27.4651 11.5323C28.6726 11.98 29.9268 12.4076 31.2411 12.8116C31.9649 13.0338 32.6821 13.2392 33.3926 13.4277C33.3526 16.6966 33.1124 19.8242 32.6454 22.7901C32.1083 26.1904 31.2711 29.3786 30.0936 32.3243C28.9561 35.1758 27.4851 37.8085 25.6538 40.1853C24.1227 42.1716 22.3448 43.9794 20.29 45.5853C18.1452 43.801 16.2705 41.8618 14.666 39.7746C12.7647 37.3069 11.2436 34.654 10.0928 31.8092C8.92867 28.9308 8.1181 25.8201 7.64777 22.4838C7.24415 19.5953 7.09738 16.5451 7.20412 13.3301C7.70448 13.2156 8.21484 13.0843 8.73187 12.9395C9.82931 12.6298 10.9668 12.2527 12.1476 11.8185C13.5319 11.3067 14.9229 10.7378 16.3439 10.1251C17.4313 9.65038 18.6689 9.09152 20.0232 8.45524C21.194 8.97706 22.3114 9.46521 23.3588 9.90623ZM21.2807 53.7055L22.1713 53.113C25.6338 50.8102 28.5425 48.1271 30.9542 45.0971C33.3659 42.0672 35.2806 38.6905 36.7483 35.0176C38.1893 31.412 39.19 27.5337 39.8038 23.4231C40.4109 19.3596 40.6377 15.0335 40.5376 10.4786L40.4742 7.55973L37.6456 6.99414C36.3647 6.73828 35.1038 6.41845 33.8562 6.0515C32.612 5.68454 31.3011 5.24015 29.9335 4.73516C28.5658 4.22681 27.1849 3.67469 25.7839 3.08554C24.3796 2.49302 22.9419 1.85337 21.4708 1.18342L20.8271 0.89389L19.9698 0.503367L19.1125 0.910723L18.4721 1.21708C16.7609 2.02843 15.1931 2.75561 13.8221 3.35486C12.3978 3.97768 11.0302 4.54327 9.71256 5.03142C8.46168 5.49264 7.31754 5.86297 6.28347 6.13229C5.29278 6.39152 4.37546 6.55648 3.52153 6.62382L2.20393 6.72481L0.446027 6.86284L0.212528 9.96347C-0.134383 14.5218 -0.0476548 18.8512 0.486055 22.9484C1.0231 27.059 2.0138 30.9272 3.47816 34.5429C4.96254 38.2091 6.91392 41.579 9.3423 44.6561C11.7773 47.7399 14.6927 50.5342 18.1051 53.0355L18.9624 53.6617L20.1032 54.5L21.2807 53.7055Z" fill="#E30613"/>
<path d="M11.3103 41.1515C11.3103 39.1517 11.4538 37.1924 11.734 35.2768C11.1236 34.1557 10.5798 33.001 10.0962 31.8126C8.93201 28.9342 8.12144 25.8234 7.6511 22.4872C7.24749 19.5986 7.10072 16.5485 7.20746 13.3334C7.70781 13.219 8.21817 13.0877 8.7352 12.9429C9.83264 12.6332 10.9701 12.2561 12.1509 11.8218C13.5353 11.3067 14.9262 10.7445 16.3439 10.1284C17.4313 9.65374 18.6689 9.09152 20.0265 8.4586C21.1973 8.98042 22.3114 9.46858 23.3588 9.9096C24.096 10.2193 24.8299 10.519 25.5504 10.8051C28.0388 8.83229 30.7741 7.21297 33.7028 6.00773C32.5053 5.65087 31.2444 5.21995 29.9301 4.73516C28.5625 4.22681 27.1815 3.67469 25.7806 3.08554C24.3796 2.49302 22.9385 1.85337 21.4675 1.18342L19.9664 0.5L19.1058 0.907357L18.4654 1.21372C16.7542 2.02506 15.1864 2.75224 13.8154 3.3515C12.3911 3.97431 11.0235 4.5399 9.70588 5.02806C8.455 5.48928 7.30753 5.8596 6.2768 6.12893C5.28944 6.38815 4.36879 6.55312 3.51486 6.62045L2.19726 6.72145L0.439355 6.85948L0.205857 9.96347C-0.137719 14.5218 -0.0543265 18.8512 0.479383 22.9484C1.01643 27.059 2.00713 30.9272 3.46816 34.5395C4.95254 38.2057 6.90391 41.5757 9.33229 44.6527C10.1062 45.6324 10.9301 46.5852 11.8007 47.5076C11.4805 45.4372 11.3103 43.3162 11.3103 41.1515Z" fill="#368D48"/>
<path d="M26.7779 43.2118C28.9928 40.3334 30.7674 37.1587 32.1417 33.708C33.5627 30.1495 34.5734 26.2981 35.2239 22.1875C35.7909 18.6021 36.0811 14.8214 36.1278 10.8724C35.2706 10.6435 34.4033 10.3944 33.526 10.1251C31.9382 9.63691 30.4238 9.12182 28.9595 8.5798C27.335 7.97718 25.6838 7.3207 23.9993 6.61372C22.7317 6.0818 21.3841 5.49264 19.9698 4.85973C18.332 5.62394 16.8376 6.30736 15.52 6.87968C13.8088 7.62369 12.1243 8.30711 10.4497 8.92656C9.02207 9.45175 7.64777 9.9096 6.32017 10.2833C5.69639 10.4584 5.07929 10.6166 4.47553 10.7546C4.34878 14.6397 4.52557 18.3294 5.01591 21.8239C5.57964 25.8571 6.56034 29.6176 7.96799 33.0919C9.35897 36.5258 11.1969 39.7375 13.4919 42.7203C15.4366 45.2453 17.7015 47.585 20.2933 49.743C22.7751 47.7971 24.9266 45.6156 26.7779 43.2118Z" fill="#000101"/>
<path d="M26.7779 43.2118C28.9928 40.3334 30.7674 37.1587 32.1417 33.708C33.5627 30.1495 34.5734 26.2981 35.2239 22.1875C35.7909 18.6021 36.0811 14.8214 36.1278 10.8724C35.2706 10.6435 34.4033 10.3944 33.526 10.1251C31.9382 9.63691 30.4238 9.12182 28.9595 8.5798C27.335 7.97718 25.6838 7.3207 23.9993 6.61372C22.7317 6.0818 21.3841 5.49264 19.9698 4.85973C18.332 5.62394 16.8376 6.30736 15.52 6.87968C13.8088 7.62369 12.1243 8.30711 10.4497 8.92656C9.02207 9.45175 7.64777 9.9096 6.32017 10.2833C5.69639 10.4584 5.07929 10.6166 4.47553 10.7546C4.34878 14.6397 4.52557 18.3294 5.01591 21.8239C5.57964 25.8571 6.56034 29.6176 7.96799 33.0919C9.35897 36.5258 11.1969 39.7375 13.4919 42.7203C15.4366 45.2453 17.7015 47.585 20.2933 49.743C22.7751 47.7971 24.9266 45.6156 26.7779 43.2118Z" fill="white"/>
<path d="M35.1005 15.3736H27.5251V15.8483H35.1038V15.3736M32.4319 17.3295L32.6087 16.8549H30.2771L30.1036 17.3295H32.4319ZM31.9783 18.592L32.155 18.1173H29.8167L29.6366 18.592H31.9783ZM31.4979 19.9151L31.6747 19.4438H29.3431L29.1629 19.9151H31.4979ZM31.0209 21.2382L31.1977 20.7635H28.8627L28.6859 21.2382H31.0209ZM30.5406 22.5646L30.7174 22.0865H28.3957L28.2189 22.5646H30.5406ZM30.0569 23.8843L30.2337 23.4096H27.9087L27.7319 23.8843H30.0569ZM29.5899 25.2074L29.7634 24.7293H27.4317L27.2549 25.2074H29.5899ZM29.1129 26.5304L29.293 26.0557H26.958L26.7779 26.5304H29.1129ZM28.6392 27.8535L28.8127 27.3788H26.491L26.3176 27.8535H28.6392ZM28.1522 29.1732L28.329 28.7019H26.0207L25.8406 29.1732H28.1522ZM27.6852 30.4996L27.8587 30.0249H25.5237L25.3536 30.4996H27.6852ZM27.2016 31.8227L27.3817 31.348H25.0534L24.8732 31.8227H27.2016ZM26.7245 33.1458L26.9013 32.6677H24.5797L24.3996 33.1458H26.7245ZM26.2475 34.4655L26.4277 33.9908H24.1094L23.9292 34.4655H26.2475ZM25.7739 35.7919L25.9507 35.3172H23.6324L23.4556 35.7919H25.7739Z" fill="#E30613"/>
<path d="M26.4177 33.5531L26.5978 33.0751H24.2795L24.1027 33.5531H26.4177Z" fill="#E30613"/>
<path d="M27.3683 30.9036L27.5451 30.4323H25.2235L25.0467 30.9036H27.3683Z" fill="#E30613"/>
<path d="M26.898 32.2267L27.0715 31.752H24.7498L24.573 32.2267H26.898Z" fill="#E30613"/>
<path d="M25.4703 36.1959L25.6438 35.7212H23.6357L23.4522 36.1959H25.4703Z" fill="#E30613"/>
<path d="M25.9407 34.8762L26.1175 34.3981H23.8025L23.6224 34.8762H25.9407Z" fill="#E30613"/>
<path d="M29.76 24.2916L29.9368 23.817H27.6018L27.4284 24.2916H29.76Z" fill="#E30613"/>
<path d="M35.1005 15.9257H27.5251V16.4004H35.1005V15.9257Z" fill="#E30613"/>
<path d="M29.2864 25.6113L29.4631 25.14H27.1315L26.9514 25.6113H29.2864Z" fill="#E30613"/>
<path d="M28.3223 28.2608L28.4958 27.7862H26.1875L26.014 28.2608H28.3223Z" fill="#E30613"/>
<path d="M28.8094 26.9378L28.9861 26.4631H26.6645L26.4877 26.9378H28.8094Z" fill="#E30613"/>
<path d="M31.678 18.9994L31.8515 18.5281H29.5132L29.3364 18.9994H31.678Z" fill="#E30613"/>
<path d="M30.2304 22.9686L30.4071 22.4905H28.0822L27.9054 22.9686H30.2304Z" fill="#E30613"/>
<path d="M27.852 29.5839L28.0355 29.1092H25.6938L25.517 29.5839H27.852Z" fill="#E30613"/>
<path d="M32.1484 17.6797L32.3252 17.205H29.9902L29.8101 17.6797H32.1484Z" fill="#E30613"/>
<path d="M31.1944 20.3224L31.3712 19.8478H29.0362L28.8627 20.3224H31.1944Z" fill="#E30613"/>
<path d="M30.7074 21.6489L30.8841 21.1708H28.5625L28.3857 21.6489H30.7074Z" fill="#E30613"/>
<path d="M19.5662 15.3466H5.45956V15.8213H19.5662V15.3466ZM16.5474 17.3026L16.3672 16.8279H7.89127L8.06473 17.3026H16.5474ZM17.0044 18.5651L16.8342 18.0904H8.3516L8.53172 18.5651H17.0044ZM17.478 19.8882L17.2979 19.4135H8.81859L8.99539 19.8882H17.478ZM17.965 21.2112L17.7849 20.7365H9.3056L9.4824 21.2112H17.965ZM18.4487 22.5343L18.2719 22.0562H9.78594L9.96273 22.5343H18.4487ZM18.909 23.8574L18.7289 23.386H10.2629L10.4331 23.8574H18.909ZM19.3827 25.1804L19.2059 24.7024H10.7333L10.9101 25.1804H19.3827ZM19.8597 26.5035L19.6796 26.0288H11.2103L11.3871 26.5035H19.8597ZM20.3434 27.8232L20.1633 27.3519H11.6873L11.8641 27.8232H20.3434ZM20.8237 29.1463L20.6469 28.6749H12.1609L12.3377 29.1463H20.8237ZM21.3041 30.4727L21.1206 29.998H12.6413L12.8181 30.4727H21.3041ZM21.7711 31.7958L21.5943 31.3211H13.115L13.2917 31.7958H21.7711ZM22.2447 33.1155L22.0679 32.6408H13.5986L13.7754 33.1155H22.2447ZM22.7384 34.4385L22.5616 33.9638H14.0723L14.2458 34.4385H22.7384ZM23.2121 35.765L23.0319 35.2869H14.546L14.7228 35.765H23.2121ZM25.1701 37.0813L25.3469 36.6066H15.0296L15.2064 37.0813H25.1701ZM24.7031 38.3943L24.8866 37.9196H15.4933L15.6701 38.3943H24.7031ZM24.2295 39.7106L24.4062 39.2325H15.9736L16.1504 39.7106H24.2295ZM23.7458 41.0236L23.9226 40.5489H16.4373L16.6108 41.0236H23.7458ZM23.2621 42.35L23.4389 41.8719H16.911L17.0878 42.35H23.2621Z" fill="#368D48"/>
<path d="M23.4256 41.4309L23.6057 40.9596H16.7408L16.9143 41.4309H23.4256Z" fill="#368D48"/>
<path d="M16.8376 17.6527L16.6608 17.1747H8.18148L8.35827 17.6527H16.8376Z" fill="#368D48"/>
<path d="M21.5976 30.8767L21.4208 30.4054H12.9482L13.1216 30.8767H21.5976Z" fill="#368D48"/>
<path d="M22.5616 33.5228L22.3848 33.0448H13.8988L14.079 33.5228H22.5616Z" fill="#368D48"/>
<path d="M23.9126 40.1146L24.0894 39.6399H16.2638L16.4406 40.1146H23.9126Z" fill="#368D48"/>
<path d="M22.0746 32.1997L21.8978 31.7284H13.4285L13.6053 32.1997H22.0746Z" fill="#368D48"/>
<path d="M24.3962 38.7983L24.5764 38.3236H15.8069L15.977 38.7983H24.3962Z" fill="#368D48"/>
<path d="M24.8699 37.4819L25.05 37.0072H15.3232L15.4966 37.4819H24.8699Z" fill="#368D48"/>
<path d="M23.042 34.8459L22.8618 34.3712H14.3758L14.5526 34.8459H23.042Z" fill="#368D48"/>
<path d="M23.6057 36.169L23.5089 35.6943H14.8595L15.0363 36.169H23.6057Z" fill="#368D48"/>
<path d="M20.1733 26.9108L19.9931 26.4362H11.5172L11.694 26.9108H20.1733Z" fill="#368D48"/>
<path d="M19.6829 25.5844L19.5061 25.1131H11.0368L11.217 25.5844H19.6829Z" fill="#368D48"/>
<path d="M19.2126 24.2647L19.0358 23.79H10.5632L10.7399 24.2647H19.2126Z" fill="#368D48"/>
<path d="M19.5662 15.8988H5.45956V16.3734H19.5662V15.8988Z" fill="#368D48"/>
<path d="M20.6503 28.2339L20.4768 27.7592H11.9942L12.1643 28.2339H20.6503Z" fill="#368D48"/>
<path d="M21.1306 29.557L20.9538 29.0823H12.4745L12.6513 29.557H21.1306Z" fill="#368D48"/>
<path d="M17.3046 18.9724L17.1278 18.5011H8.64847L8.82526 18.9724H17.3046Z" fill="#368D48"/>
<path d="M17.7916 20.2955L17.6181 19.8208H9.13548L9.31227 20.2955H17.7916Z" fill="#368D48"/>
<path d="M18.7389 22.9416L18.5655 22.467H10.0895L10.2663 22.9416H18.7389Z" fill="#368D48"/>
<path d="M18.2753 21.6186L18.0951 21.1473H9.61249L9.78928 21.6186H18.2753Z" fill="#368D48"/>
</svg>
