<svg width="24" height="24" viewBox="0 0 24 24" fill="none" xmlns="http://www.w3.org/2000/svg">
<path fill-rule="evenodd" clip-rule="evenodd" d="M19.2 0H4.8C2.14903 0 0 2.14903 0 4.8V19.2C0 21.851 2.14903 24 4.8 24H19.2C21.851 24 24 21.851 24 19.2V4.8C24 2.14903 21.851 0 19.2 0ZM17.5104 8.95259C17.8156 8.56024 17.7449 7.99479 17.3526 7.68962C16.9602 7.38446 16.3948 7.45514 16.0896 7.8475L11.2812 14.0297C11.1743 14.1672 10.9731 14.185 10.8437 14.0685L7.80208 11.3311C7.43262 10.9986 6.86356 11.0285 6.53104 11.398C6.19853 11.7674 6.22848 12.3365 6.59794 12.669L9.63956 15.4065C10.5457 16.222 11.9536 16.0971 12.702 15.1348L17.5104 8.95259Z" fill="#2D88D6"/>
</svg>
