<svg width="16" height="17" viewBox="0 0 16 17" fill="none" xmlns="http://www.w3.org/2000/svg">
<path d="M7.42678 0.563483C7.77099 0.322682 8.22901 0.322682 8.57322 0.563483L9.13293 0.955037C9.35497 1.11036 9.63053 1.16894 9.89654 1.11735L10.5671 0.9873C10.9795 0.907322 11.3979 1.09361 11.6145 1.4536L11.9665 2.03896C12.1062 2.27117 12.3341 2.43676 12.5981 2.49782L13.2636 2.65177C13.6729 2.74644 13.9793 3.08682 14.0307 3.50374L14.1143 4.18169C14.1474 4.45063 14.2882 4.6946 14.5046 4.85777L15.0499 5.26909C15.3853 5.52205 15.5269 5.95765 15.4042 6.35943L15.2048 7.01274C15.1257 7.2719 15.1551 7.55208 15.2864 7.78913L15.6173 8.3867C15.8208 8.7542 15.7729 9.20971 15.4974 9.52687L15.0495 10.0426C14.8718 10.2472 14.7848 10.5151 14.8083 10.785L14.8675 11.4655C14.904 11.884 14.675 12.2807 14.2943 12.4584L13.6754 12.7473C13.4298 12.862 13.2413 13.0713 13.153 13.3275L12.9303 13.9733C12.7934 14.3704 12.4228 14.6396 12.0028 14.6471L11.3199 14.6593C11.0489 14.6642 10.7916 14.7788 10.6067 14.9769L10.1406 15.4762C9.85399 15.7833 9.40598 15.8786 9.01922 15.7146L8.39034 15.448C8.14086 15.3422 7.85914 15.3422 7.60967 15.448L6.98078 15.7146C6.59402 15.8786 6.14601 15.7833 5.85938 15.4762L5.39331 14.9769C5.20843 14.7788 4.95106 14.6642 4.68014 14.6593L3.99717 14.6471C3.57716 14.6396 3.20661 14.3704 3.06968 13.9733L2.84701 13.3275C2.75868 13.0713 2.57018 12.862 2.32464 12.7473L1.70569 12.4584C1.32504 12.2807 1.09604 11.884 1.13247 11.4655L1.19171 10.785C1.21521 10.5151 1.12815 10.2472 0.950468 10.0426L0.502554 9.52687C0.227091 9.20971 0.179216 8.7542 0.382718 8.3867L0.713621 7.78913C0.844888 7.55208 0.874336 7.2719 0.795223 7.01274L0.595793 6.35943C0.473146 5.95765 0.61468 5.52205 0.950065 5.26909L1.49541 4.85777C1.71175 4.6946 1.85261 4.45063 1.88575 4.18169L1.96929 3.50375C2.02066 3.08682 2.32713 2.74644 2.73641 2.65177L3.40191 2.49782C3.66591 2.43676 3.89382 2.27117 4.03348 2.03896L4.38555 1.4536C4.60206 1.09361 5.02048 0.907322 5.43288 0.9873L6.10346 1.11735C6.36947 1.16894 6.64503 1.11036 6.86707 0.955037L7.42678 0.563483Z" fill="#E84E1B"/>
<path d="M8.34008 10.0838V9.75964C8.34008 9.5275 8.39508 9.31537 8.50507 9.12325C8.61735 8.92913 8.78004 8.77403 8.99315 8.65796C9.20854 8.53988 9.46862 8.48085 9.77338 8.48085C10.085 8.48085 10.3462 8.53888 10.5571 8.65495C10.7679 8.77103 10.9271 8.92612 11.0348 9.12024C11.1448 9.31437 11.1998 9.5275 11.1998 9.75964V10.0838C11.1998 10.316 11.1448 10.5291 11.0348 10.7232C10.9248 10.9154 10.7633 11.0705 10.5502 11.1885C10.3394 11.3046 10.0804 11.3626 9.77338 11.3626C9.46404 11.3626 9.20281 11.3046 8.98971 11.1885C8.7766 11.0705 8.61506 10.9154 8.50507 10.7232C8.39508 10.5291 8.34008 10.316 8.34008 10.0838ZM9.14094 9.75964V10.0838C9.14094 10.256 9.18792 10.4121 9.28187 10.5521C9.37582 10.6922 9.53965 10.7623 9.77338 10.7623C10.0048 10.7623 10.1664 10.6922 10.258 10.5521C10.3497 10.4121 10.3955 10.256 10.3955 10.0838V9.75964C10.3955 9.58754 10.3508 9.43144 10.2615 9.29135C10.1744 9.15126 10.0117 9.08122 9.77338 9.08122C9.54424 9.08122 9.38154 9.15126 9.2853 9.29135C9.18906 9.43144 9.14094 9.58754 9.14094 9.75964ZM4.7998 6.56565V6.24145C4.7998 6.0093 4.8548 5.79617 4.96479 5.60205C5.07707 5.40792 5.23976 5.25283 5.45287 5.13676C5.66826 5.02068 5.92834 4.96265 6.2331 4.96265C6.54474 4.96265 6.80596 5.02068 7.01678 5.13676C7.22759 5.25283 7.38684 5.40792 7.49454 5.60205C7.60224 5.79617 7.65609 6.0093 7.65609 6.24145V6.56565C7.65609 6.79779 7.60109 7.01093 7.4911 7.20505C7.38341 7.39717 7.22301 7.55226 7.0099 7.67034C6.79909 7.78641 6.54016 7.84445 6.2331 7.84445C5.92147 7.84445 5.6591 7.78641 5.44599 7.67034C5.23518 7.55226 5.07478 7.39717 4.96479 7.20505C4.8548 7.01093 4.7998 6.79779 4.7998 6.56565ZM5.6041 6.24145V6.56565C5.6041 6.73776 5.64993 6.89385 5.74159 7.03394C5.83554 7.17403 5.99937 7.24407 6.2331 7.24407C6.46225 7.24407 6.62265 7.17403 6.71431 7.03394C6.80825 6.89385 6.85523 6.73776 6.85523 6.56565V6.24145C6.85523 6.06934 6.81055 5.91324 6.72118 5.77315C6.63181 5.63307 6.46912 5.56302 6.2331 5.56302C6.00396 5.56302 5.84127 5.63307 5.74502 5.77315C5.65108 5.91324 5.6041 6.06934 5.6041 6.24145ZM5.12634 11.2366L9.96586 5.08873H10.7873L5.94782 11.2366H5.12634Z" fill="white"/>
</svg>
