<svg width="12" height="17" viewBox="0 0 12 17" fill="none" xmlns="http://www.w3.org/2000/svg">
<path fill-rule="evenodd" clip-rule="evenodd" d="M6.45075 16.5625C7.84575 15.2777 12 11.1177 12 7.12322C12 5.42582 11.3679 3.79793 10.2426 2.59768C9.11742 1.39744 7.5913 0.723145 6 0.723145C4.4087 0.723145 2.88258 1.39744 1.75736 2.59768C0.632141 3.79793 0 5.42582 0 7.12322C0 11.1177 4.15425 15.2777 5.54925 16.5625C5.67921 16.6668 5.8374 16.7231 6 16.7231C6.1626 16.7231 6.32079 16.6668 6.45075 16.5625ZM6 8.72314C6.90374 8.72314 7.63636 7.95563 7.63636 7.00886C7.63636 6.06209 6.90374 5.29457 6 5.29457C5.09626 5.29457 4.36364 6.06209 4.36364 7.00886C4.36364 7.95563 5.09626 8.72314 6 8.72314Z" fill="#A5A8AD"/>
</svg>
