<svg width="40" height="40" viewBox="0 0 40 40" fill="none" xmlns="http://www.w3.org/2000/svg">
<path d="M0 31.6667C0.00264643 33.876 0.88147 35.9941 2.4437 37.5563C4.00593 39.1185 6.12401 39.9974 8.33333 40H31.6667C33.876 39.9974 35.9941 39.1185 37.5563 37.5563C39.1185 35.9941 39.9974 33.876 40 31.6667V16.6667H0V31.6667ZM28.3333 24.1667C28.8278 24.1667 29.3111 24.3133 29.7223 24.588C30.1334 24.8627 30.4538 25.2531 30.643 25.71C30.8322 26.1668 30.8818 26.6694 30.7853 27.1544C30.6888 27.6393 30.4507 28.0848 30.1011 28.4344C29.7515 28.7841 29.306 29.0222 28.8211 29.1186C28.3361 29.2151 27.8334 29.1656 27.3766 28.9764C26.9198 28.7871 26.5294 28.4667 26.2547 28.0556C25.98 27.6445 25.8333 27.1611 25.8333 26.6667C25.8333 26.0036 26.0967 25.3677 26.5656 24.8989C27.0344 24.4301 27.6703 24.1667 28.3333 24.1667ZM20 24.1667C20.4945 24.1667 20.9778 24.3133 21.3889 24.588C21.8 24.8627 22.1205 25.2531 22.3097 25.71C22.4989 26.1668 22.5484 26.6694 22.452 27.1544C22.3555 27.6393 22.1174 28.0848 21.7678 28.4344C21.4181 28.7841 20.9727 29.0222 20.4877 29.1186C20.0028 29.2151 19.5001 29.1656 19.0433 28.9764C18.5865 28.7871 18.196 28.4667 17.9213 28.0556C17.6466 27.6445 17.5 27.1611 17.5 26.6667C17.5 26.0036 17.7634 25.3677 18.2322 24.8989C18.7011 24.4301 19.337 24.1667 20 24.1667ZM11.6667 24.1667C12.1611 24.1667 12.6445 24.3133 13.0556 24.588C13.4667 24.8627 13.7871 25.2531 13.9764 25.71C14.1656 26.1668 14.2151 26.6694 14.1186 27.1544C14.0222 27.6393 13.7841 28.0848 13.4344 28.4344C13.0848 28.7841 12.6393 29.0222 12.1544 29.1186C11.6694 29.2151 11.1668 29.1656 10.71 28.9764C10.2531 28.7871 9.8627 28.4667 9.58799 28.0556C9.31329 27.6445 9.16667 27.1611 9.16667 26.6667C9.16667 26.0036 9.43006 25.3677 9.8989 24.8989C10.3677 24.4301 11.0036 24.1667 11.6667 24.1667Z" fill="#A5A8AD"/>
<path d="M31.6667 3.33333H30V1.66667C30 1.22464 29.8244 0.800716 29.5118 0.488155C29.1993 0.175595 28.7754 0 28.3333 0C27.8913 0 27.4674 0.175595 27.1548 0.488155C26.8423 0.800716 26.6667 1.22464 26.6667 1.66667V3.33333H13.3333V1.66667C13.3333 1.22464 13.1577 0.800716 12.8452 0.488155C12.5326 0.175595 12.1087 0 11.6667 0C11.2246 0 10.8007 0.175595 10.4882 0.488155C10.1756 0.800716 10 1.22464 10 1.66667V3.33333H8.33333C6.12401 3.33598 4.00593 4.2148 2.4437 5.77703C0.881471 7.33926 0.00264703 9.45734 5.96046e-07 11.6667V13.3333H40V11.6667C39.9974 9.45734 39.1185 7.33926 37.5563 5.77703C35.9941 4.2148 33.876 3.33598 31.6667 3.33333Z" fill="#A5A8AD"/>
</svg>
