<svg width="40" height="40" viewBox="0 0 40 40" fill="none" xmlns="http://www.w3.org/2000/svg">
<path d="M36.6667 15H15C13.1617 15 11.6667 16.495 11.6667 18.3333V23.3333C11.6667 25.1717 13.1617 26.6667 15 26.6667H36.6667C38.505 26.6667 40 25.1717 40 23.3333V18.3333C40 16.495 38.505 15 36.6667 15ZM15 11.6667H20C21.8383 11.6667 23.3333 10.1717 23.3333 8.33333V3.33333C23.3333 1.495 21.8383 0 20 0H15C13.1617 0 11.6667 1.495 11.6667 3.33333V8.33333C11.6667 10.1717 13.1617 11.6667 15 11.6667ZM36.6667 1.66667H30C28.1617 1.66667 26.6667 3.16167 26.6667 5V8.33333C26.6667 10.1717 28.1617 11.6667 30 11.6667H36.6667C38.505 11.6667 40 10.1717 40 8.33333V5C40 3.16167 38.505 1.66667 36.6667 1.66667ZM38.3333 30H13.3333C10.5767 30 8.33333 27.7567 8.33333 25V6.66667C8.33333 2.99 5.34333 0 1.66667 0C0.746667 0 0 0.745 0 1.66667C0 2.58833 0.746667 3.33333 1.66667 3.33333C3.505 3.33333 5 4.82833 5 6.66667V25C5 28.4083 7.06167 31.3367 10 32.6267V35C10 37.7567 12.2433 40 15 40C17.7567 40 20 37.7567 20 35V33.3333H28.3333V35C28.3333 37.7567 30.5767 40 33.3333 40C36.09 40 38.3333 37.7567 38.3333 35V33.3333C39.2533 33.3333 40 32.5883 40 31.6667C40 30.745 39.2533 30 38.3333 30Z" fill="#A5A8AD"/>
</svg>
