<svg width="40" height="40" viewBox="0 0 40 40" fill="none" xmlns="http://www.w3.org/2000/svg">
<path d="M25 30.0363H0V6.61816C0 5.28725 0.526784 4.01086 1.46447 3.06977C2.40215 2.12868 3.67392 1.59998 5 1.59998H20C21.3261 1.59998 22.5979 2.12868 23.5355 3.06977C24.4732 4.01086 25 5.28725 25 6.61816V30.0363ZM28.3333 30.0363H40V21.6727H28.3333V30.0363ZM31.6667 8.29088H28.3333V18.3272H40V16.6545C39.9974 14.4372 39.1185 12.3114 37.5563 10.7435C35.9941 9.17556 33.876 8.29354 31.6667 8.29088ZM5.09667 33.3818C5.03561 33.6565 5.00322 33.9368 5 34.2182C5 35.3272 5.43899 36.3909 6.22039 37.1751C7.00179 37.9594 8.0616 38.4 9.16667 38.4C10.2717 38.4 11.3315 37.9594 12.1129 37.1751C12.8943 36.3909 13.3333 35.3272 13.3333 34.2182C13.3301 33.9368 13.2977 33.6565 13.2367 33.3818H5.09667ZM28.43 33.3818C28.3689 33.6565 28.3365 33.9368 28.3333 34.2182C28.3333 35.3272 28.7723 36.3909 29.5537 37.1751C30.3351 37.9594 31.3949 38.4 32.5 38.4C33.6051 38.4 34.6649 37.9594 35.4463 37.1751C36.2277 36.3909 36.6667 35.3272 36.6667 34.2182C36.6634 33.9368 36.6311 33.6565 36.57 33.3818H28.43Z" fill="#A5A8AD"/>
</svg>
