<svg width="16" height="16" viewBox="0 0 16 16" fill="none" xmlns="http://www.w3.org/2000/svg">
<path d="M6.66732 5.33333V4M6.66732 12V10.6667M6.66732 8.66667V7.33333M4.00065 14C2.52789 14 1.33398 12.8061 1.33398 11.3333V10.6667C1.33398 10.2985 1.64065 10.0109 1.98858 9.89042C2.77167 9.6193 3.33398 8.87532 3.33398 8C3.33398 7.12468 2.77167 6.3807 1.98858 6.10958C1.64065 5.98912 1.33398 5.70152 1.33398 5.33333V4.66667C1.33398 3.19391 2.52789 2 4.00065 2H12.0007C13.4734 2 14.6673 3.19391 14.6673 4.66667V5.33333C14.6673 5.70152 14.3606 5.98912 14.0127 6.10958C13.2296 6.3807 12.6673 7.12468 12.6673 8C12.6673 8.87532 13.2296 9.6193 14.0127 9.89042C14.3606 10.0109 14.6673 10.2985 14.6673 10.6667V11.3333C14.6673 12.8061 13.4734 14 12.0007 14H4.00065Z" stroke="#2D88D6" stroke-linecap="round" stroke-linejoin="round"/>
</svg>
