<svg width="108" height="195" viewBox="0 0 108 195" fill="none" xmlns="http://www.w3.org/2000/svg">
<path d="M27 54.0861C27 61.5793 29.625 67.9486 34.875 73.1939C40.125 78.4391 46.5 81.0618 54 81.0618C61.5 81.0618 67.875 78.4391 73.125 73.1939C78.375 67.9486 81 61.5793 81 54.0861C81 46.5929 78.375 40.2236 73.125 34.9783C67.875 29.7331 61.5 27.1104 54 27.1104C46.5 27.1104 40.125 29.7331 34.875 34.9783C29.625 40.2236 27 46.5929 27 54.0861ZM2.58999e-08 54.0861C6.8098e-07 39.0996 5.25 26.3611 15.75 15.8706C26.25 5.38003 39 0.134763 54 0.134763C69 0.134764 81.75 5.38003 92.25 15.8706C102.75 26.3611 108 39.0996 108 54.0861C108 66.2252 104.55 76.8296 97.65 85.8994C90.75 94.9692 82.2 101.3 72 104.89L72 176.376C72 177.575 71.775 178.738 71.325 179.865C70.875 180.992 70.275 181.927 69.525 182.67L60.75 191.437C59.85 192.336 58.839 193.011 57.717 193.46C56.595 193.91 55.431 194.135 54.225 194.135C53.025 194.135 51.9 193.949 50.85 193.577C49.8 193.206 48.825 192.567 47.925 191.662L24.525 168.283C23.625 167.384 22.95 166.41 22.5 165.361C22.05 164.312 21.825 163.188 21.825 161.989C21.825 160.79 22.014 159.666 22.392 158.617C22.77 157.568 23.406 156.594 24.3 155.694L36 144.005L24.3 132.316C23.4 131.416 22.764 130.442 22.392 129.393C22.02 128.344 21.831 127.22 21.825 126.021C21.825 124.822 22.014 123.698 22.392 122.649C22.77 121.6 23.406 120.626 24.3 119.727L36 108.037L36 104.89C25.2 101.144 16.5 94.6245 9.9 85.3329C3.3 76.0413 -4.78512e-07 65.6257 2.58999e-08 54.0861Z" fill="white"/>
</svg>
