<svg width="130" height="51" viewBox="0 0 130 51" fill="none" xmlns="http://www.w3.org/2000/svg">
<path fill-rule="evenodd" clip-rule="evenodd" d="M6.97026 0.603678C4.34232 0.0599168 1.55197 1.69127 0.423063 4.64683C-0.708295 7.60011 0.507932 10.4362 3.13573 10.98C5.76353 11.5261 8.81078 9.57132 9.93969 6.61568C11.0711 3.66248 9.59805 1.14751 6.97026 0.603678Z" fill="#01933E"/>
<path fill-rule="evenodd" clip-rule="evenodd" d="M92.8833 0.603678C95.5112 0.059917 98.3016 1.69127 99.4305 4.64684C100.562 7.60011 99.3456 10.4362 96.7178 10.98C94.0901 11.5261 91.0428 9.57132 89.9114 6.61567C88.7825 3.66247 90.2555 1.14751 92.8833 0.603678Z" fill="#01933E"/>
<path fill-rule="evenodd" clip-rule="evenodd" d="M0.277207 15.8676V48.7964C0.277646 49.1522 0.42014 49.4933 0.67337 49.7447C0.926598 49.9961 1.26984 50.1373 1.62764 50.1371H8.43405C8.61109 50.1371 8.7864 50.1025 8.94996 50.035C9.11353 49.9677 9.26215 49.8689 9.38732 49.7444C9.51251 49.6199 9.61179 49.4721 9.67952 49.3094C9.74724 49.1468 9.78208 48.9724 9.78204 48.7964V15.8676C9.78208 15.6915 9.74723 15.5171 9.67951 15.3544C9.61178 15.1918 9.51249 15.044 9.38731 14.9195C9.26214 14.795 9.11352 14.6962 8.94995 14.6288C8.78639 14.5615 8.61109 14.5268 8.43405 14.5269H1.62764C1.26984 14.5267 0.926609 14.6678 0.673382 14.9193C0.420157 15.1706 0.277659 15.5117 0.277207 15.8676Z" fill="#19120A"/>
<path fill-rule="evenodd" clip-rule="evenodd" d="M89.5345 15.8676V48.7964C89.5348 49.1519 89.6769 49.4927 89.9296 49.744C90.1823 49.9953 90.5251 50.1367 90.8824 50.1371H97.6888C97.8661 50.1374 98.0416 50.1029 98.2055 50.0356C98.3692 49.9684 98.5182 49.8696 98.6436 49.7451C98.769 49.6206 98.8685 49.4727 98.9364 49.3099C99.0043 49.1472 99.0393 48.9726 99.0393 48.7964V15.8676C99.0393 15.6913 99.0042 15.5168 98.9364 15.354C98.8685 15.1912 98.769 15.0433 98.6436 14.9188C98.5181 14.7943 98.3692 14.6956 98.2055 14.6283C98.0416 14.5611 97.866 14.5266 97.6888 14.5269H90.8824C90.5251 14.5272 90.1823 14.6685 89.9296 14.92C89.6769 15.1713 89.5348 15.5121 89.5345 15.8676Z" fill="#19120A"/>
<path fill-rule="evenodd" clip-rule="evenodd" d="M119.162 28.3935C115.466 26.6616 112.557 25.4263 112.557 22.2363C112.557 17.2509 116.777 16.8642 118.035 16.8642C119.225 16.8956 120.396 17.1763 121.471 17.6881C122.546 18.1998 123.5 18.9309 124.27 19.8339C124.888 20.598 125.725 20.762 126.406 20.2465C127.045 19.7636 126.974 18.8471 126.498 18.2728C125.787 17.408 124.923 16.6803 123.948 16.126C121.872 14.9271 119.507 14.3137 117.106 14.3515C111.966 14.3515 104.717 16.229 104.717 24.3247C104.717 28.4921 106.782 31.1218 114.137 34.722C121.446 38.2988 121.693 40.4246 121.693 42.5201C121.693 45.4779 119.637 47.8757 115.412 47.8757C111.196 47.8757 108.499 45.4569 106.873 44.1678C106.327 43.7342 105.605 43.3615 104.94 43.9052C104.797 44.0341 104.681 44.1911 104.601 44.3665C104.521 44.5419 104.479 44.7319 104.477 44.9244C104.475 45.1169 104.513 45.3077 104.589 45.485C104.665 45.6621 104.776 45.8218 104.917 45.9537C106.39 47.4208 108.145 48.579 110.077 49.3596C112.009 50.1402 114.079 50.5275 116.164 50.4985C121.122 50.4985 130 48.8719 130 39.8317C130 35.9127 127.154 32.1414 119.162 28.3935Z" fill="#19120A"/>
<path fill-rule="evenodd" clip-rule="evenodd" d="M53.1771 16.0975V48.6912C53.1774 49.093 53.3383 49.4783 53.6243 49.7623C53.9102 50.0462 54.2979 50.2055 54.702 50.2053H67.8882C74.0558 50.2053 84.11 47.4747 84.11 31.7732C84.11 16.3577 72.1963 14.581 66.1418 14.581H54.702C54.2975 14.5813 53.9099 14.7412 53.624 15.0255C53.3381 15.3099 53.1773 15.6955 53.1771 16.0975ZM62.6773 17.0023H65.8071C69.7712 17.0023 71.5694 17.6022 73.4691 20.9681C74.9538 23.5276 75.6963 28.1871 75.6963 32.106C75.6963 36.1422 75.0009 40.7759 73.561 43.4503C71.685 47.0012 69.8867 47.7396 65.8071 47.7396H62.6773V17.0023Z" fill="#19120A"/>
<path fill-rule="evenodd" clip-rule="evenodd" d="M16.6472 15.8108V48.5499C16.6473 48.7392 16.6849 48.9269 16.7579 49.1019C16.831 49.2768 16.9379 49.4357 17.0728 49.5696C17.2076 49.7035 17.3677 49.8096 17.5437 49.882C17.7198 49.9543 17.9084 49.9914 18.099 49.9912H31.3725C37.5401 49.9912 47.5918 47.2606 47.5918 31.5591C47.5918 16.1437 35.6805 14.367 29.6283 14.367H18.099C17.9083 14.3669 17.7194 14.4042 17.5433 14.4767C17.367 14.5492 17.207 14.6555 17.0722 14.7897C16.9372 14.9237 16.8304 15.0829 16.7574 15.2581C16.6845 15.4334 16.6471 15.6212 16.6472 15.8108ZM26.1616 16.7882H29.289C33.2554 16.7882 35.0513 17.3883 36.9533 20.7541C38.4381 23.3136 39.1804 27.9708 39.1804 31.892C39.1804 35.9281 38.4851 40.5619 37.0452 43.2363C35.1691 46.7872 33.371 47.5255 29.289 47.5255H26.1616V16.7882Z" fill="#19120A"/>
</svg>
