<svg width="18" height="19" viewBox="0 0 18 19" fill="none" xmlns="http://www.w3.org/2000/svg">
<path d="M17.4633 3.22763C17.247 2.96039 16.9762 2.74546 16.6702 2.5981C16.3642 2.45075 16.0304 2.37458 15.6926 2.375H3.26153L3.22924 2.09713C3.16316 1.51954 2.89354 0.986996 2.47152 0.600462C2.04949 0.213927 1.50439 0.000270586 0.939556 0H0.768867C0.564951 0 0.369386 0.0834075 0.225196 0.231874C0.0810054 0.38034 0 0.581704 0 0.791667C0 1.00163 0.0810054 1.20299 0.225196 1.35146C0.369386 1.49993 0.564951 1.58333 0.768867 1.58333H0.939556C1.12788 1.58336 1.30964 1.65455 1.45037 1.7834C1.5911 1.91225 1.68101 2.0898 1.70304 2.28237L2.761 11.5449C2.87084 12.5082 3.32034 13.3964 4.02418 14.041C4.72802 14.6856 5.63722 15.0417 6.5792 15.0417H14.6085C14.8124 15.0417 15.008 14.9583 15.1521 14.8098C15.2963 14.6613 15.3773 14.46 15.3773 14.25C15.3773 14.04 15.2963 13.8387 15.1521 13.6902C15.008 13.5417 14.8124 13.4583 14.6085 13.4583H6.5792C6.10331 13.457 5.63949 13.3041 5.25131 13.0206C4.86314 12.7371 4.56962 12.337 4.41099 11.875H13.5759C14.4772 11.8751 15.3499 11.549 16.0415 10.9538C16.7331 10.3587 17.1996 9.53222 17.3595 8.61888L17.963 5.17196C18.0233 4.82996 18.0097 4.47851 17.9234 4.1425C17.837 3.8065 17.6799 3.49416 17.4633 3.22763Z" fill="#F7F7F7"/>
<path d="M5.38207 19C6.23134 19 6.9198 18.2911 6.9198 17.4167C6.9198 16.5422 6.23134 15.8333 5.38207 15.8333C4.5328 15.8333 3.84434 16.5422 3.84434 17.4167C3.84434 18.2911 4.5328 19 5.38207 19Z" fill="#F7F7F7"/>
<path d="M13.0707 19C13.92 19 14.6085 18.2911 14.6085 17.4167C14.6085 16.5422 13.92 15.8333 13.0707 15.8333C12.2215 15.8333 11.533 16.5422 11.533 17.4167C11.533 18.2911 12.2215 19 13.0707 19Z" fill="#F7F7F7"/>
</svg>
