<svg width="132" height="41" viewBox="0 0 132 41" fill="none" xmlns="http://www.w3.org/2000/svg">
<path d="M5.00456 17.8004V9.87132V2.88278L0.0137224 0.00634766V7.03609V17.9995L0 18.0269V28.3862L5.63614 31.6402L5.62242 31.6676L13.524 36.2329L18.0274 38.8347L18.0412 38.821V38.8141L18.048 38.821L18.0618 38.8141V38.821L18.0755 38.8347L22.5789 36.2329L30.4805 31.6676L30.4668 31.6402L36.1029 28.3862V18.0269L36.0892 17.9995V7.03609V0.00634766L31.0984 2.88278V9.87132V17.8004L31.1052 17.821V25.3175L27.0343 27.6654L27.0412 27.686L21.3226 30.988L18.0686 32.869L18.0549 32.8622V32.8553L18.048 32.8622V32.8553V32.8622L18.0343 32.869L14.7803 30.988L9.06176 27.686L9.06864 27.6654L4.99771 25.3175V17.821L5.00456 17.8004Z" fill="#E84E1B"/>
<path d="M18.0481 24.6865L16.4897 23.7872L13.7506 22.2014V22.1945L11.801 21.0687V17.4783L11.8078 17.4714V13.6751V6.76893L6.65908 3.79639L6.64536 3.80325V17.4783H6.65223V24.0687L12.3433 27.357L12.3502 27.3501L18.055 30.6453L23.2106 27.6659H23.2037L29.4577 24.055V22.5653V17.4714H29.4508V10.881L23.7598 7.59272L23.7529 7.59959L18.0481 4.3044L13.2357 7.08471V13.0435L14.9245 12.0618V12.0687L18.055 10.2632L21.1785 12.0618L21.1717 12.0687L24.3021 13.881V17.4714L24.2952 17.4783V21.0824L21.1785 22.881L18.0481 24.6865Z" fill="#1D70B7"/>
<path d="M131.032 1.16018C130.393 0.377576 129.192 0 127.407 0H114.453L116.458 2.35469V18.4668H122.416V14.2723H126.844C130.496 14.2723 132 12.6796 132 8.51258V5.38901C132.007 3.33638 131.67 1.94279 131.032 1.16018ZM125.986 8.86269C125.986 10.1396 125.766 10.4828 124.874 10.4828H122.423V4.05721H124.874C125.766 4.05721 125.986 4.34554 125.986 5.62242V8.86269Z" fill="#F7F7F7"/>
<path d="M75.0823 22.2563H68.7185H68.6773H62.0732L64.0778 24.611V28.7163V34.881C64.0778 37.1122 64.4691 38.6431 65.2174 39.4806C66 40.3181 67.2494 40.7232 68.9794 40.7232H75.0823C76.8947 40.7232 78.1167 40.373 78.7345 39.7071C79.373 39.0138 79.6819 37.6202 79.6819 35.5401V27.6385C79.6819 25.5859 79.3455 24.1923 78.707 23.4097C78.0617 22.6339 76.8672 22.2563 75.0823 22.2563ZM73.6613 35.3067C73.6613 36.5836 73.4416 36.9268 72.5492 36.9268H71.2379C70.318 36.9268 70.0983 36.5767 70.0983 35.3067V27.865C70.0983 26.5882 70.318 26.2998 71.2379 26.2998H72.5492C73.4416 26.2998 73.6613 26.5882 73.6613 27.865V35.3067Z" fill="#F7F7F7"/>
<path d="M90.1647 22.2563H87.1372H82.9771H80.9725L82.9771 24.4326V26.4646V40.7232H88.9908V26.5126L92.1693 30.3914V40.7232H98.0182V38.547V35.8353V30.3639L92.4164 23.2174C91.8123 22.5721 91.0571 22.2563 90.1647 22.2563Z" fill="#F7F7F7"/>
<path d="M100.366 24.6042V40.7232H106.339L106.332 37.3593V28.4005V27.1374V26.6293H112.929V22.2563H98.3615L100.366 24.6042Z" fill="#F7F7F7"/>
<path d="M59.0663 31.6065C60.5697 31.3456 61.3249 30.4394 61.3249 28.1259V26.3067C61.3249 23.7598 60.1578 22.2563 56.897 22.2563H43.9427L45.9473 26.0184V40.7232H56.6704C60.3501 40.7232 62.183 40.0161 62.183 36.6865V35.8902C62.183 33.6591 61.0434 33.1785 59.0663 31.6065ZM51.9061 26.3067H54.3844C55.2494 26.3067 55.4965 27.0962 55.4965 28.1053V29.4783C55.4965 29.8284 54.9473 30.1991 54.3844 29.8833L51.9061 28.1396V26.3067ZM55.5171 36.7895C55.3524 36.8788 55.1601 36.9268 54.9405 36.9268H51.9061V31.0298L56.1281 33.563C56.5125 33.9131 56.7597 34.4211 56.7597 34.984C56.7665 35.8147 56.2448 36.5149 55.5171 36.7895Z" fill="#F7F7F7"/>
<path d="M108.817 0.00634766H96.2265L98.2311 2.36104V18.4732H104.19V15.6173V14.3267L107.698 11.0384V11.6356V15.3976V15.6173V18.4732H113.657V5.15508C113.657 3.21229 113.32 1.85303 112.627 1.1322C111.961 0.383921 110.684 0.00634766 108.817 0.00634766ZM107.705 7.2695L104.197 10.5578V8.34044V8.21V4.02923H106.62C107.54 4.02923 107.705 4.31756 107.705 5.33358V7.2695Z" fill="#F7F7F7"/>
<path d="M126.776 22.2563H114.185L116.19 24.611V40.7232H122.149V37.8673V36.5767L125.657 33.2884V33.8856V37.6476V37.8673V40.7232H131.616V27.4051C131.616 25.4623 131.279 24.103 130.586 23.3822C129.927 22.6339 128.643 22.2563 126.776 22.2563ZM125.664 29.5195L122.156 32.8078V30.5904V30.46V26.2792H124.579C125.499 26.2792 125.664 26.5676 125.664 27.5836V29.5195Z" fill="#F7F7F7"/>
<path d="M64.6543 18.4732H77.4919V14.3061H70.6131V12.178L75.1372 9.84387V6.1505L70.6131 8.47773V6.1505V4.37248H77.2104V0.00634766H62.6429L64.6543 2.35417V18.4732Z" fill="#F7F7F7"/>
<path d="M45.048 18.4732H55.7711C59.4508 18.4732 61.2837 17.7661 61.2837 14.4365V13.6402C61.2837 12.226 60.8238 11.5189 59.9862 10.7844L51.0068 4.8187V4.43426V4.05669H51.3501H60.9748V0.00634766H51.3501H50.9107H43.0435L45.048 3.76835V18.4732ZM51.0068 8.77979L55.2288 11.313C55.6132 11.6631 55.8604 12.1711 55.8604 12.734C55.8604 13.5578 55.3386 14.258 54.611 14.5326C54.4462 14.6219 54.254 14.67 54.0343 14.67H51V8.77979H51.0068Z" fill="#F7F7F7"/>
<path d="M84.6933 4.37934V18.4732H90.6521V4.37248H94.7505V0.00634766H85.2357H80.5949H78.5903L80.5949 2.35417V4.37934H84.6933Z" fill="#F7F7F7"/>
</svg>
