<svg width="132" height="42" viewBox="0 0 132 42" fill="none" xmlns="http://www.w3.org/2000/svg">
<path d="M5.00456 18.4388V10.5098V3.5212L0.0137224 0.644775V7.67452V18.6379L0 18.6654V29.0246L5.63614 32.2786L5.62242 32.3061L13.524 36.8713L18.0274 39.4731L18.0412 39.4594V39.4525L18.048 39.4594L18.0618 39.4525V39.4594L18.0755 39.4731L22.5789 36.8713L30.4805 32.3061L30.4668 32.2786L36.1029 29.0246V18.6654L36.0892 18.6379V7.67452V0.644775L31.0984 3.5212V10.5098V18.4388L31.1052 18.4594V25.956L27.0343 28.3038L27.0412 28.3244L21.3226 31.6264L18.0686 33.5074L18.0549 33.5006V33.4937L18.048 33.5006V33.4937V33.5006L18.0343 33.5074L14.7803 31.6264L9.06176 28.3244L9.06864 28.3038L4.99771 25.956V18.4594L5.00456 18.4388Z" fill="#E84E1B"/>
<path d="M18.048 25.325L16.4897 24.4256L13.7506 22.8398V22.833L11.8009 21.7071V18.1167L11.8078 18.1099V14.3135V7.40735L6.65905 4.43481L6.64532 4.44168V18.1167H6.6522V24.7071L12.3433 27.9954L12.3501 27.9886L18.0549 31.2838L23.2105 28.3044H23.2037L29.4577 24.6934V23.2037V18.1099H29.4508V11.5195L23.7597 8.23115L23.7528 8.23802L18.048 4.94283L13.2357 7.72314V13.6819L14.9245 12.7003V12.7071L18.0549 10.9016L21.1785 12.7003L21.1716 12.7071L24.3021 14.5195V18.1099L24.2952 18.1167V21.7208L21.1785 23.5195L18.048 25.325Z" fill="#1D70B7"/>
<path d="M131.032 1.79861C130.393 1.016 129.192 0.638428 127.407 0.638428H114.453L116.458 2.99312V19.1052H122.416V14.9107H126.844C130.496 14.9107 132 13.3181 132 9.15101V6.02744C132.007 3.97481 131.67 2.58122 131.032 1.79861ZM125.986 9.50112C125.986 10.778 125.766 11.1213 124.874 11.1213H122.423V4.69563H124.874C125.766 4.69563 125.986 4.98396 125.986 6.26085V9.50112Z" fill="#1D1D1B"/>
<path d="M75.0823 22.8945H68.7185H68.6773H62.0732L64.0778 25.2492V29.3545V35.5192C64.0778 37.7504 64.4691 39.2812 65.2174 40.1188C66 40.9563 67.2494 41.3613 68.9794 41.3613H75.0823C76.8947 41.3613 78.1167 41.0112 78.7345 40.3453C79.373 39.652 79.6819 38.2584 79.6819 36.1783V28.2767C79.6819 26.2241 79.3455 24.8305 78.707 24.0478C78.0617 23.2721 76.8672 22.8945 75.0823 22.8945ZM73.6613 35.9449C73.6613 37.2218 73.4416 37.565 72.5492 37.565H71.2379C70.318 37.565 70.0983 37.2149 70.0983 35.9449V28.5032C70.0983 27.2263 70.318 26.938 71.2379 26.938H72.5492C73.4416 26.938 73.6613 27.2263 73.6613 28.5032V35.9449Z" fill="#1D1D1B"/>
<path d="M90.1647 22.8945H87.1372H82.9771H80.9725L82.9771 25.0707V27.1028V41.3613H88.9908V27.1508L92.1693 31.0295V41.3613H98.0182V39.1851V36.4735V31.0021L92.4164 23.8556C91.8123 23.2103 91.0571 22.8945 90.1647 22.8945Z" fill="#1D1D1B"/>
<path d="M100.366 25.2424V41.3613H106.339L106.332 37.9975V29.0387V27.7755V27.2675H112.929V22.8945H98.3615L100.366 25.2424Z" fill="#1D1D1B"/>
<path d="M59.0663 32.2446C60.5697 31.9838 61.3249 31.0776 61.3249 28.7641V26.9449C61.3249 24.398 60.1578 22.8945 56.897 22.8945H43.9427L45.9473 26.6565V41.3613H56.6704C60.3501 41.3613 62.183 40.6542 62.183 37.3247V36.5284C62.183 34.2973 61.0434 33.8167 59.0663 32.2446ZM51.9061 26.9449H54.3844C55.2494 26.9449 55.4965 27.7343 55.4965 28.7435V30.1165C55.4965 30.4666 54.9473 30.8373 54.3844 30.5215L51.9061 28.7778V26.9449ZM55.5171 37.4277C55.3524 37.5169 55.1601 37.565 54.9405 37.565H51.9061V31.668L56.1281 34.2012C56.5125 34.5513 56.7597 35.0593 56.7597 35.6222C56.7665 36.4529 56.2448 37.1531 55.5171 37.4277Z" fill="#1D1D1B"/>
<path d="M108.817 0.644775H96.2265L98.2311 2.99946V19.1116H104.19V16.2557V14.9651L107.698 11.6768V12.2741V16.0361V16.2557V19.1116H113.657V5.79351C113.657 3.85072 113.32 2.49146 112.627 1.77063C111.961 1.02235 110.684 0.644775 108.817 0.644775ZM107.705 7.90793L104.197 11.1962V8.97886V8.84843V4.66766H106.62C107.54 4.66766 107.705 4.95599 107.705 5.972V7.90793Z" fill="#1D1D1B"/>
<path d="M126.776 22.8945H114.185L116.19 25.2492V41.3613H122.149V38.5055V37.2149L125.657 33.9266V34.5238V38.2858V38.5055V41.3613H131.616V28.0433C131.616 26.1005 131.279 24.7412 130.586 24.0204C129.927 23.2721 128.643 22.8945 126.776 22.8945ZM125.664 30.1577L122.156 33.446V31.2286V31.0982V26.9174H124.579C125.499 26.9174 125.664 27.2057 125.664 28.2218V30.1577Z" fill="#1D1D1B"/>
<path d="M64.6544 19.1116H77.4919V14.9445H70.6132V12.8164L75.1372 10.4823V6.78893L70.6132 9.11616V6.78893V5.0109H77.2104V0.644775H62.6429L64.6544 2.9926V19.1116Z" fill="#1D1D1B"/>
<path d="M45.048 19.1116H55.7711C59.4508 19.1116 61.2837 18.4045 61.2837 15.075V14.2786C61.2837 12.8644 60.8238 12.1573 59.9862 11.4228L51.0068 5.45713V5.07269V4.69512H51.3501H60.9748V0.644775H51.3501H50.9107H43.0435L45.048 4.40678V19.1116ZM51.0068 9.41822L55.2288 11.9514C55.6132 12.3015 55.8604 12.8095 55.8604 13.3725C55.8604 14.1963 55.3386 14.8965 54.611 15.1711C54.4462 15.2603 54.254 15.3084 54.0343 15.3084H51V9.41822H51.0068Z" fill="#1D1D1B"/>
<path d="M84.6933 5.01777V19.1116H90.6521V5.0109H94.7505V0.644775H85.2357H80.5949H78.5903L80.5949 2.9926V5.01777H84.6933Z" fill="#1D1D1B"/>
</svg>
