<svg width="12" height="16" viewBox="0 0 12 16" fill="none" xmlns="http://www.w3.org/2000/svg">
<path fill-rule="evenodd" clip-rule="evenodd" d="M6.45075 15.8394C7.84575 14.5546 12 10.3945 12 6.40008C12 4.70267 11.3679 3.07479 10.2426 1.87454C9.11742 0.674292 7.5913 0 6 0C4.4087 0 2.88258 0.674292 1.75736 1.87454C0.632141 3.07479 0 4.70267 0 6.40008C0 10.3945 4.15425 14.5546 5.54925 15.8394C5.67921 15.9436 5.8374 16 6 16C6.1626 16 6.32079 15.9436 6.45075 15.8394ZM6 8C6.90374 8 7.63636 7.23249 7.63636 6.28571C7.63636 5.33894 6.90374 4.57143 6 4.57143C5.09626 4.57143 4.36364 5.33894 4.36364 6.28571C4.36364 7.23249 5.09626 8 6 8Z" fill="#A5A8AD"/>
</svg>
