<svg width="18" height="18" viewBox="0 0 18 18" fill="none" xmlns="http://www.w3.org/2000/svg">
<path d="M9 11.2517C7.75737 11.2517 6.75 12.2596 6.75 13.5031V18.0059H11.25V13.5031C11.25 12.2596 10.2426 11.2517 9 11.2517Z" fill="#A5A8AD"/>
<path d="M12.75 13.5031V18.0059H15.75C16.9926 18.0059 18 16.9979 18 15.7545V8.90946C18.0002 8.51958 17.8488 8.14493 17.5777 7.86481L11.2043 0.97024C10.0797 -0.247276 8.18167 -0.322029 6.96491 0.80325C6.90711 0.85672 6.85143 0.912407 6.79802 0.97024L0.435762 7.86255C0.156551 8.14384 -0.000105416 8.52426 5.32218e-08 8.92071V15.7545C5.32218e-08 16.9979 1.00737 18.0059 2.25 18.0059H5.24999V13.5031C5.26402 11.4567 6.9152 9.78557 8.9088 9.73744C10.9691 9.6877 12.7343 11.3873 12.75 13.5031Z" fill="#A5A8AD"/>
<path d="M9 11.2517C7.75737 11.2517 6.75 12.2596 6.75 13.5031V18.0059H11.25V13.5031C11.25 12.2596 10.2426 11.2517 9 11.2517Z" fill="#A5A8AD"/>
</svg>
