<svg width="10" height="10" viewBox="0 0 10 10" fill="none" xmlns="http://www.w3.org/2000/svg">
<path fill-rule="evenodd" clip-rule="evenodd" d="M8.71778 9.77996C9.01111 10.0733 9.48668 10.0733 9.78001 9.77996C10.0733 9.48664 10.0733 9.01107 9.78001 8.71774L6.06224 5L9.78 1.28226C10.0733 0.988932 10.0733 0.513361 9.78 0.220037C9.48667 -0.0732868 9.0111 -0.0732868 8.71778 0.220037L5.00002 3.93778L1.28223 0.219993C0.9889 -0.0733312 0.513327 -0.0733308 0.220002 0.219993C-0.0733223 0.513317 -0.0733227 0.988888 0.220002 1.28221L3.9378 5L0.219994 8.71779C-0.0733314 9.01111 -0.073331 9.48668 0.219994 9.78001C0.513318 10.0733 0.988891 10.0733 1.28222 9.78001L5.00002 6.06221L8.71778 9.77996Z" fill="#A5A8AD"/>
</svg>
