<svg width="219" height="205" viewBox="0 0 219 205" fill="none" xmlns="http://www.w3.org/2000/svg">
<path d="M205.283 67.1918C205.875 70.9244 205.948 75.0898 205.954 80.2641V124.832C205.945 131.903 205.82 137.09 204.402 141.862L204.239 142.39C202.817 146.842 200.547 150.974 197.556 154.558L196.947 155.267C193.05 159.698 187.753 162.781 179.968 167.452L135.785 193.954C127.821 198.731 122.408 202.077 116.577 203.489L116.012 203.619C115.836 203.657 115.659 203.691 115.483 203.727V120.242L205.283 67.1918ZM101.021 120.242V203.724L100.504 203.619C95.2102 202.456 90.3352 199.704 83.6924 195.731L80.7305 193.954L36.5488 167.452C29.007 162.928 23.7994 159.893 19.9385 155.679L19.5684 155.267C16.2761 151.523 13.7932 147.139 12.2764 142.39C10.7055 137.472 10.5715 132.164 10.5625 124.832V80.2641C10.5688 75.0927 10.6394 70.9287 11.2305 67.1977L101.021 120.242ZM179.968 37.6449C187.753 42.3149 193.05 45.3985 196.947 49.8295L197.556 50.5385C198.375 51.5202 199.138 52.5446 199.847 53.6039L108.251 107.715L70.6729 85.516L164.543 28.392L179.968 37.6449ZM101.464 1.28068C106.273 0.36062 111.223 0.42654 116.012 1.47794L116.577 1.60783C122.408 3.0198 127.822 6.36509 135.785 11.142L150.532 19.9877L56.5557 77.1752L16.665 53.6098C17.5472 52.2906 18.5155 51.0267 19.5684 49.8295L19.9385 49.4174C23.7995 45.2037 29.0069 42.169 36.5488 37.6449L80.7305 11.142L83.6924 9.36564C90.3352 5.39239 95.2102 2.64032 100.504 1.47794L101.464 1.28068Z" fill="white"/>
</svg>
